<svg id="Layer_1" data-name="Layer 1" xmlns="http://www.w3.org/2000/svg" viewBox="0 0 500 500"><defs><style>.cls-1{fill:#e40138;}</style></defs><path class="cls-1" d="M432.81,141.79l-31.69-31.68a7.13,7.13,0,0,0-10.69.64c-31,40.57-82.31,67.1-140.43,67.11s-109.46-26.54-140.43-67.11a7.13,7.13,0,0,0-10.69-.64L67.19,141.79a11.91,11.91,0,0,0-.86,16,237.4,237.4,0,0,0,183.55,86.69h.24a237.4,237.4,0,0,0,183.55-86.69A11.91,11.91,0,0,0,432.81,141.79Z"/><path class="cls-1" d="M414.3,311H387.61a2.92,2.92,0,0,0-2.92,2.92v8.87a2.92,2.92,0,0,0,2.92,2.92h29.62a4.4,4.4,0,0,1,4.4,4.4v20.61a4.4,4.4,0,0,1-4.4,4.4H387.67a2.92,2.92,0,0,0-2.92,2.92v8.87a2.92,2.92,0,0,0,2.92,2.92H414.3a22,22,0,0,0,22-22V333A22,22,0,0,0,414.3,311Z"/><path class="cls-1" d="M77.87,345.76a3,3,0,0,0,2.84,2h9.38a3,3,0,0,0,2.8-4L79,305.55a3,3,0,0,0-2.81-2H66.74A3,3,0,0,0,64,307.52Z"/><rect class="cls-1" x="306.39" y="377.2" width="14.71" height="14.78" rx="2.92"/><path class="cls-1" d="M369.51,377.15h-8.87l-.21,0-.21,0H345.93a2.92,2.92,0,0,0-2.92,2.92V389a2.92,2.92,0,0,0,2.92,2.92h14.29l.21,0,.21,0h8.87a2.92,2.92,0,0,0,2.92-2.92v-8.95A2.92,2.92,0,0,0,369.51,377.15Z"/><path class="cls-1" d="M313.51,311H295.43a1.53,1.53,0,0,0-1.11.46l-9.22,9.23a2.94,2.94,0,0,0,2.08,5h29.27a4.4,4.4,0,0,1,4.4,4.4V350.7l.06,0v4.38H272.57a2.92,2.92,0,0,0-2.92,2.92v8.87a2.92,2.92,0,0,0,2.92,2.92h11.75v3.12a4.4,4.4,0,0,1-4.4,4.4H249.36a4.4,4.4,0,0,1-4.4-4.4h0V361.55s0-.05,0-.08V343.38a2.92,2.92,0,0,0-2.92-2.92h-8.87a2.92,2.92,0,0,0-2.92,2.92V370a22,22,0,0,0,22,22H277a22,22,0,0,0,22-22v-.19H332.7a2.92,2.92,0,0,0,2.92-2.92V333a3,3,0,0,0-.1-.73A22,22,0,0,0,313.51,311Z"/><path class="cls-1" d="M198.41,311h-3.57l16-16a2.94,2.94,0,0,0-2.08-5h-13a1.62,1.62,0,0,0-1.12.46l-18.54,18.53-11.74,11.74a2.94,2.94,0,0,0,2.08,5h32.12a7.26,7.26,0,0,1,7.26,7.26v22.12H171.45V355l0,0h-25a4.4,4.4,0,0,1-4.4-4.4V308.53h0v-2a2.92,2.92,0,0,0-2.92-2.92h-8.87a2.92,2.92,0,0,0-2.92,2.92v41.71a3.43,3.43,0,0,0,0,.56,22,22,0,0,0,22,20.93h7.79a2,2,0,0,0,.35,0H217.6a2.92,2.92,0,0,0,2.92-2.92V333a3,3,0,0,0-.1-.73A22,22,0,0,0,198.41,311Z"/><path class="cls-1" d="M376.87,325.67H368a2.92,2.92,0,0,0-2.92,2.92v2h0v20.07a4.4,4.4,0,0,1-4.4,4.4h-25l0,0v7.43l7.32,7.32h14.8a22,22,0,0,0,22-20.93,3.43,3.43,0,0,0,.05-.56V328.59A2.92,2.92,0,0,0,376.87,325.67Z"/><path class="cls-1" d="M117,303.61h-8.87a2.92,2.92,0,0,0-2.92,2.92v2h0v42.09a4.4,4.4,0,0,1-4.4,4.4h-10a3.39,3.39,0,0,0-.64-.07H81.29l-.21,0-.22,0H66.58a2.92,2.92,0,0,0-2.92,2.92v8.94a2.92,2.92,0,0,0,2.92,2.92H80.86l.22,0,.21,0H97.87a22,22,0,0,0,22-20.93,3.43,3.43,0,0,0,0-.56V306.53A2.92,2.92,0,0,0,117,303.61Z"/></svg>